0
SECTION
2
HEADER
9
$INSUNITS
70
4
9
$ACADVER
1
AC1014
9
$HANDSEED
5
FFFF
0
ENDSEC
0
SECTION
2
TABLES
0
TABLE
2
VPORT
5
8
100
AcDbSymbolTable
0
ENDTAB
0
TABLE
2
LTYPE
5
5
100
AcDbSymbolTable
0
LTYPE
5
14
100
AcDbSymbolTableRecord
100
AcDbLinetypeTableRecord
2
BYBLOCK
70
0
0
LTYPE
5
15
100
AcDbSymbolTableRecord
100
AcDbLinetypeTableRecord
2
BYLAYER
70
0
0
ENDTAB
0
TABLE
2
LAYER
5
2
100
AcDbSymbolTable
70
2
0
LAYER
5
50
100
AcDbSymbolTableRecord
100
AcDbLayerTableRecord
2
0
70
0
6
CONTINUOUS
0
ENDTAB
0
TABLE
2
STYLE
5
3
100
AcDbSymbolTable
70
1
0
STYLE
5
11
100
AcDbSymbolTableRecord
100
AcDbTextStyleTableRecord
2
STANDARD
70
0
0
ENDTAB
0
TABLE
2
VIEW
5
6
100
AcDbSymbolTable
70
0
0
ENDTAB
0
TABLE
2
UCS
5
7
100
AcDbSymbolTable
70
0
0
ENDTAB
0
TABLE
2
APPID
5
9
100
AcDbSymbolTable
70
2
0
APPID
5
12
100
AcDbSymbolTableRecord
100
AcDbRegAppTableRecord
2
ACAD
70
0
0
ENDTAB
0
TABLE
2
DIMSTYLE
5
A
100
AcDbSymbolTable
70
1
0
ENDTAB
0
TABLE
2
BLOCK_RECORD
5
1
100
AcDbSymbolTable
70
1
0
BLOCK_RECORD
5
1F
100
AcDbSymbolTableRecord
100
AcDbBlockTableRecord
2
*MODEL_SPACE
0
BLOCK_RECORD
5
1B
100
AcDbSymbolTableRecord
100
AcDbBlockTableRecord
2
*PAPER_SPACE
0
ENDTAB
0
ENDSEC
0
SECTION
2
BLOCKS
0
BLOCK
5
20
100
AcDbEntity
100
AcDbBlockBegin
2
*MODEL_SPACE
0
ENDBLK
5
21
100
AcDbEntity
100
AcDbBlockEnd
0
BLOCK
5
1C
100
AcDbEntity
100
AcDbBlockBegin
2
*PAPER_SPACE
0
ENDBLK
5
1D
100
AcDbEntity
100
AcDbBlockEnd
0
ENDSEC
0
SECTION
2
ENTITIES
0
CIRCLE
5
100
100
AcDbEntity
8
0
100
AcDbCircle
10
-37.036055276680813
20
89.500000000000014
30
0
40
1.4500000000000046
210
0
220
-0
230
1
0
CIRCLE
5
101
100
AcDbEntity
8
0
100
AcDbCircle
10
-315.46105527466727
20
-13.299999821903505
30
0
40
1.4499999999999957
210
0
220
-0
230
1
0
CIRCLE
5
102
100
AcDbEntity
8
0
100
AcDbCircle
10
-205.44855527657819
20
89.500000007107744
30
0
40
1.4499999999999957
210
0
220
-0
230
1
0
CIRCLE
5
103
100
AcDbEntity
8
0
100
AcDbCircle
10
-37.036055274667191
20
-13.299999976413929
30
0
40
1.4500000000000046
210
0
220
-0
230
1
0
CIRCLE
5
104
100
AcDbEntity
8
0
100
AcDbCircle
10
-176.24855527466724
20
-13.299999899158717
30
0
40
1.4499999999999957
210
0
220
-0
230
1
0
CIRCLE
5
105
100
AcDbEntity
8
0
100
AcDbCircle
10
-329.54855527645356
20
89.500000012345282
30
0
40
1.4500000000000313
210
0
220
-0
230
1
0
LWPOLYLINE
5
106
100
AcDbEntity
8
0
100
AcDbPolyline
90
8
70
1
43
0.0
10
-282.98750000000001
20
6.7500000000000036
10
-282.98749999999995
20
44.750000000000007
42
-0.4142135623730222
10
-282.48750000000001
20
45.25
10
-279.48750000000007
20
45.249999999999986
42
-0.41421356237312623
10
-278.98750000000001
20
44.75
10
-278.98750000000007
20
6.7499999999999982
42
-0.41421356237302542
10
-279.48750000000007
20
6.2499999999999982
10
-282.48750000000001
20
6.249999999999984
42
-0.4142135623731022
0
LWPOLYLINE
5
107
100
AcDbEntity
8
0
100
AcDbPolyline
90
64
70
1
43
0.0
10
-243.09287517811097
20
88.071265029272382
42
0.29663623000561701
10
-246.74958145775764
20
90.450000340382402
10
-296.24753616184933
20
90.450000328455147
42
0.29663591220949503
10
-299.90424054610099
20
88.071269287988315
10
-300.20657537358278
20
87.389365719209451
42
-0.29663591261970407
10
-302.03492756872487
20
86.200000198976042
10
-307.54855527897735
20
86.200000205962681
42
-0.4142135620019512
10
-309.54855527644304
20
88.200000205962681
10
-309.54855527644304
20
88.700000206759441
42
0.41421356237309243
10
-313.54855527644298
20
92.700000206759455
10
-345.54855527644298
20
92.700000206759441
42
0.4142135623730937
10
-349.54855527644298
20
88.700000206759441
10
-349.54855527644298
20
88.200000261717634
42
-0.4142135627442336
10
-351.54855527897729
20
86.200000261717648
10
-357.61105526998
20
86.200000860022627
42
0.41421356274423216
10
-362.71105527644249
20
81.1000002693998
10
-362.71105527644272
20
-4.8999999002641381
42
0.41421356224748618
10
-357.61105527862992
20
-9.9999999002641466
10
-337.46105527558547
20
-9.9999999089056573
42
-0.41421356224748801
10
-335.46105527644318
20
-11.999999908905682
10
-335.46105527644318
20
-12.500000001301089
42
0.41421356237309664
10
-331.46105527644306
20
-16.500000001301096
10
-299.46105527644301
20
-16.500000001301089
42
0.41421356237309082
10
-295.46105527644301
20
-12.500000001301231
10
-295.46105527644295
20
-11.999999927775464
42
-0.41421356249869129
10
-293.4610552755853
20
-9.9999999277755354
10
-198.24855527558526
20
-9.9999999686083996
42
-0.41421356224748279
10
-196.248555276443
20
-11.999999968608391
10
-196.248555276443
20
-12.50000018499567
42
0.41421356237309537
10
-192.24855527644303
20
-16.50000018499566
10
-160.24855527644303
20
-16.500000184995677
42
0.41421356237309459
10
-156.24855527644303
20
-12.500000184995628
10
-156.24855527644306
20
-11.999999987478267
42
-0.41421356249870822
10
-154.24855527558535
20
-9.9999999874782404
10
-59.036055275585326
20
-10.000000028311096
42
-0.41421356224748412
10
-57.036055276443051
20
-12.000000028311096
10
-57.036055276443037
20
-12.50000041494051
42
0.4142135623730947
10
-53.036055276443044
20
-16.500000414940509
10
-21.036055276443051
20
-16.500000414940512
42
0.41421356237309503
10
-17.036055276443051
20
-12.50000041494051
10
-17.036055276443044
20
-12.000000047180945
42
-0.414213562498705
10
-15.036055275585325
20
-10.000000047180947
10
5.1139447213697657
20
-10.000000055822484
42
0.41421356249870556
10
10.213944723556953
20
-4.9000000558224777
10
10.213944723556981
20
81.100000032023161
42
0.41421356170450435
10
5.1139447351988423
20
86.200000032023155
10
-15.036055281008483
20
86.20000007801994
42
-0.41421356170450196
10
-17.036055276443044
20
88.20000007801994
10
-17.036055276443026
20
88.699999995374768
42
0.41421356239993318
10
-21.036055276809545
20
92.699999995374782
10
-53.036055276809542
20
92.699999992442741
42
0.41421356234625756
10
-57.03605527644303
20
88.699999992442741
10
-57.036055276443051
20
88.20000017845959
42
-0.41421356304168844
10
-59.03605528100848
20
86.200000178459604
10
-183.44855528100857
20
86.20000046245849
42
-0.41421356170450002
10
-185.44855527644313
20
88.20000046245849
10
-185.44855527644313
20
88.700000137716856
42
0.41421356237309243
10
-189.4485552764431
20
92.70000013771687
10
-221.44855527644313
20
92.700000137716856
42
0.41421356237309243
10
-225.44855527644307
20
88.700000137716856
10
-225.44855527644313
20
88.20000056289814
42
-0.41421356304168971
10
-227.44855528100857
20
86.20000056289814
10
-240.96219117873144
20
86.200000593746012
42
-0.29663622931917782
10
-242.79054431350741
20
87.389368249301015
0
LWPOLYLINE
5
108
100
AcDbEntity
8
0
100
AcDbPolyline
90
8
70
1
43
0.0
10
-297.54855527644304
20
74.462499999999977
10
-297.54855527644304
20
87.462499999999963
42
-0.41421356237316787
10
-297.04855527644304
20
87.962499999999977
10
-284.0485552764431
20
87.962499999999977
42
-0.41421356237313667
10
-283.5485552764431
20
87.462499999999963
10
-283.5485552764431
20
74.462499999999977
42
-0.41421356237316787
10
-284.0485552764431
20
73.962499999999935
10
-297.0485552764431
20
73.962499999999977
42
-0.414213562373069
0
LWPOLYLINE
5
109
100
AcDbEntity
8
0
100
AcDbPolyline
90
8
70
1
43
0.0
10
-278.49855527644303
20
74.462499999999977
10
-278.49855527644303
20
87.462499999999963
42
-0.41421356237316787
10
-277.99855527644303
20
87.962499999999977
10
-264.99855527644308
20
87.962499999999991
42
-0.41421356237298057
10
-264.49855527644308
20
87.462499999999963
10
-264.49855527644308
20
74.462499999999977
42
-0.41421356237316787
10
-264.99855527644308
20
73.962499999999935
10
-277.99855527644303
20
73.962499999999949
42
-0.41421356237316787
0
LWPOLYLINE
5
110
100
AcDbEntity
8
0
100
AcDbPolyline
90
20
70
1
43
0.0
10
-249.87355527644303
20
11.04999999999996
42
0.41421356237307555
10
-249.37355527644303
20
10.549999999999986
10
-212.46105527643422
20
10.549999999999962
42
-0.41421356237309503
10
-211.96105527643422
20
10.049999999999955
10
-211.96105527643422
20
9.9499999999999549
42
-0.41421356237309437
10
-212.46105527643422
20
9.4499999999999549
10
-250.47355527644302
20
9.4499999999999513
42
-0.41421356237309437
10
-250.97355527644305
20
9.9499999999999584
10
-250.97355527644305
20
28.650000000000023
42
-0.41421356237309503
10
-250.47355527644302
20
29.150000000000023
10
-233.97355527644308
20
29.150000000000023
42
0.41421356237305079
10
-233.47355527644308
20
29.65000000000002
10
-233.47355527644308
20
35.400000000000041
42
-0.41421356237309503
10
-232.97355527644305
20
35.900000000000041
10
-232.87355527644308
20
35.900000000000048
42
-0.41421356237309503
10
-232.37355527644308
20
35.400000000000041
10
-232.37355527644308
20
28.550000000000026
42
-0.41421356237309503
10
-232.87355527644308
20
28.050000000000029
10
-249.37355527644303
20
28.050000000000026
42
0.41421356237307683
10
-249.87355527644308
20
27.550000000000026
0
LWPOLYLINE
5
111
100
AcDbEntity
8
0
100
AcDbPolyline
90
20
70
1
43
0.0
10
-227.94230527644311
20
65.64999999999965
42
0.4142135623730222
10
-228.44230527644305
20
65.14999999999965
10
-228.44230527644311
20
47.600000000000009
42
-0.41421356237309503
10
-228.94230527644311
20
47.100000000000009
10
-231.87355527644308
20
47.100000000000001
42
0.4142135623730222
10
-232.37355527644303
20
46.600000000000001
10
-232.37355527644308
20
40.800000000000047
42
-0.41421356237309503
10
-232.87355527644308
20
40.300000000000047
10
-232.97355527644305
20
40.300000000000026
42
-0.41421356237309503
10
-233.47355527644308
20
40.80000000000004
10
-233.47355527644308
20
47.700000000000003
42
-0.41421356237309503
10
-232.97355527644305
20
48.200000000000003
10
-230.0423052764431
20
48.200000000000003
42
0.4142135623730222
10
-229.54230527644313
20
48.700000000000003
10
-229.5423052764431
20
66.249999999999659
42
-0.41421356237309503
10
-229.04230527644307
20
66.749999999999659
10
-198.54230527644307
20
66.749999999999659
42
-0.41421356237309503
10
-198.04230527644307
20
66.249999999999659
10
-198.04230527644307
20
66.14999999999965
42
-0.41421356237309503
10
-198.54230527644307
20
65.64999999999965
0
LWPOLYLINE
5
112
100
AcDbEntity
8
0
100
AcDbPolyline
90
8
70
1
43
0.0
10
-278.49855527644303
20
55.412499999999994
10
-278.49855527644303
20
68.412499999999952
42
-0.41421356237310542
10
-277.99855527644308
20
68.912499999999994
10
-264.99855527644303
20
68.91249999999998
42
-0.41421356237309503
10
-264.49855527644308
20
68.412500000000009
10
-264.49855527644308
20
55.412500000000016
42
-0.41421356237316265
10
-264.99855527644308
20
54.912499999999994
10
-277.99855527644303
20
54.912500000000009
42
-0.41421356237310542
0
LWPOLYLINE
5
113
100
AcDbEntity
8
0
100
AcDbPolyline
90
8
70
1
43
0.0
10
-68.448555276443045
20
64.149999999999977
10
-55.448555276443052
20
64.149999999999963
42
-0.41421356237310542
10
-54.948555276443052
20
63.649999999999963
10
-54.948555276443052
20
50.649999999999963
42
-0.41421356237307944
10
-55.448555276443052
20
50.149999999999991
10
-68.448555276443031
20
50.149999999999991
42
-0.41421356237310542
10
-68.948555276443059
20
50.649999999999991
10
-68.948555276443074
20
63.649999999999984
42
-0.41421356237308982
0
LWPOLYLINE
5
114
100
AcDbEntity
8
0
100
AcDbPolyline
90
20
70
1
43
0.0
10
-272.02405527644311
20
8
42
0.41421356237313017
10
-272.52405527644311
20
7.5000000000000018
42
-0.41421356237307944
10
-273.02405527644305
20
6.9999999999999858
10
-273.2360552764431
20
7.0000000000000018
42
0.41421356237303453
10
-273.73605527644304
20
6.5000000000000142
10
-273.7360552764431
20
-6.4999999999999858
42
0.41421356237313928
10
-273.2360552764431
20
-6.9999999999999822
10
-241.18605527644306
20
-6.9999999999999849
42
0.414213562373136
10
-240.68605527644306
20
-6.4999999999999769
10
-240.68605527644306
20
6.4999999999999991
42
0.41421356237313534
10
-241.18605527644306
20
7.0000000000000195
10
-241.39805527644307
20
7.0000000000000462
42
-0.41421356237314705
10
-241.8980552764431
20
7.5
42
0.41421356237315943
10
-242.3980552764431
20
7.9999999999999805
10
-248.1480552764431
20
7.9999999999999982
42
0.41421356237307294
10
-248.64805527644302
20
7.5
42
-0.41421356237307422
10
-249.14805527644313
20
6.9999999999999929
10
-265.27405527644299
20
6.9999999999999849
42
-0.41421356237312623
10
-265.77405527644311
20
7.5000000000000098
42
0.41421356237311713
10
-266.27405527644311
20
8.0000000000000355
0
LWPOLYLINE
5
115
100
AcDbEntity
8
0
100
AcDbPolyline
90
8
70
1
43
0.0
10
-121.62355527644303
20
44.599999999999973
42
0.41421356237311063
10
-122.12355527644303
20
45.099999999999987
10
-135.12355527644306
20
45.100000000000009
42
0.41421356237305862
10
-135.62355527644308
20
44.600000000000001
10
-135.62355527644308
20
31.600000000000005
42
0.41421356237309503
10
-135.12355527644306
20
31.099999999999973
10
-122.12355527644303
20
31.099999999999998
42
0.41421356237304302
10
-121.62355527644306
20
31.599999999999998
0
LWPOLYLINE
5
116
100
AcDbEntity
8
0
100
AcDbPolyline
90
8
70
1
43
0.0
10
-164.19855527644307
20
50.64999999999997
10
-164.19855527644307
20
63.649999999999991
42
-0.41421356237307422
10
-163.69855527644305
20
64.150000000000006
10
-150.69855527644305
20
64.149999999999963
42
-0.41421356237317308
10
-150.19855527644302
20
63.650000000000006
10
-150.19855527644305
20
50.650000000000006
42
-0.41421356237295975
10
-150.69855527644305
20
50.149999999999999
10
-163.69855527644305
20
50.150000000000006
42
-0.41421356237313145
0
LWPOLYLINE
5
117
100
AcDbEntity
8
0
100
AcDbPolyline
90
8
70
1
43
0.0
10
-107.04855527644305
20
50.64999999999997
10
-107.04855527644305
20
63.649999999999956
42
-0.41421356237310542
10
-106.54855527644303
20
64.149999999999977
10
-93.548555276443039
20
64.149999999999977
42
-0.41421356237310025
10
-93.048555276443039
20
63.649999999999991
10
-93.048555276443068
20
50.650000000000006
42
-0.41421356237315227
10
-93.548555276443054
20
50.149999999999991
10
-106.54855527644304
20
50.149999999999949
42
-0.41421356237312101
0
LWPOLYLINE
5
118
100
AcDbEntity
8
0
100
AcDbPolyline
90
8
70
1
43
0.0
10
-251.14230527644307
20
63.649999999999984
42
0.41421356237313667
10
-251.64230527644307
20
64.149999999999991
10
-252.6423052764431
20
64.149999999999991
42
0.41421356237313145
10
-253.1423052764431
20
63.649999999999984
10
-253.1423052764431
20
50.64999999999997
42
0.41421356237315748
10
-252.6423052764431
20
50.150000000000006
10
-251.64230527644307
20
50.149999999999999
42
0.41421356237315748
10
-251.14230527644307
20
50.649999999999977
0
LWPOLYLINE
5
119
100
AcDbEntity
8
0
100
AcDbPolyline
90
8
70
1
43
0.0
10
-111.31105527644306
20
26.049999999999997
10
-98.311055276443042
20
26.050000000000001
42
-0.41421356237311063
10
-97.811055276443028
20
25.550000000000001
10
-97.811055276443057
20
12.549999999999999
42
-0.41421356237308593
10
-98.311055276443057
20
12.05000000000001
10
-111.31105527644306
20
12.049999999999999
42
-0.41421356237305079
10
-111.81105527644306
20
12.550000000000001
10
-111.81105527644306
20
25.54999999999999
42
-0.41421356237311846
0
LWPOLYLINE
5
120
100
AcDbEntity
8
0
100
AcDbPolyline
90
8
70
1
43
0.0
10
-168.96105527644301
20
12.550000000000004
10
-168.96105527644298
20
25.549999999999994
42
-0.41421356237305079
10
-168.46105527644306
20
26.050000000000001
10
-155.46105527644303
20
26.050000000000022
42
-0.41421356237310025
10
-154.96105527644303
20
25.550000000000004
10
-154.96105527644303
20
12.550000000000004
42
-0.41421356237299878
10
-155.46105527644303
20
12.049999999999992
10
-168.46105527644306
20
12.049999999999963
42
-0.41421356237305212
0
LWPOLYLINE
5
121
100
AcDbEntity
8
0
100
AcDbPolyline
90
8
70
1
43
0.0
10
-206.56105527644311
20
26.050000000000011
42
0.41421356237303519
10
-207.06105527644314
20
25.550000000000011
10
-207.06105527644311
20
12.550000000000006
42
0.41421356237316787
10
-206.56105527644311
20
12.050000000000026
10
-193.56105527644308
20
12.050000000000008
42
0.41421356237313145
10
-193.06105527644308
20
12.550000000000004
10
-193.06105527644308
20
25.550000000000004
42
0.41421356237310542
10
-193.56105527644308
20
26.050000000000033
0
LWPOLYLINE
5
122
100
AcDbEntity
8
0
100
AcDbPolyline
90
8
70
1
43
0.0
10
-207.84855527644308
20
50.149999999999999
10
-220.84855527644308
20
50.149999999999999
42
-0.41421356237313667
10
-221.34855527644308
20
50.650000000000006
10
-221.34855527644305
20
63.649999999999991
42
-0.41421356237318346
10
-220.84855527644308
20
64.149999999999977
10
-207.84855527644308
20
64.149999999999949
42
-0.41421356237316265
10
-207.34855527644305
20
63.649999999999977
10
-207.34855527644311
20
50.64999999999997
42
-0.41421356237297535
0
LWPOLYLINE
5
123
100
AcDbEntity
8
0
100
AcDbPolyline
90
8
70
1
43
0.0
10
-245.16105527644314
20
12.550000000000008
10
-245.16105527644314
20
25.549999999999997
42
-0.41421356237300916
10
-244.66105527644314
20
26.050000000000011
10
-231.66105527644311
20
26.050000000000001
42
-0.41421356237316787
10
-231.16105527644308
20
25.550000000000011
10
-231.16105527644305
20
12.550000000000008
42
-0.41421356237303519
10
-231.66105527644308
20
12.05000000000001
10
-244.66105527644314
20
12.050000000000034
42
-0.41421356237315876
0
LWPOLYLINE
5
124
100
AcDbEntity
8
0
100
AcDbPolyline
90
8
70
1
43
0.0
10
-326.41105527644322
20
63.649999999999984
10
-326.41105527644322
20
50.649999999999977
42
-0.41421356237300139
10
-326.91105527644316
20
50.150000000000006
10
-339.91105527644311
20
50.150000000000041
42
-0.41421356237299095
10
-340.41105527644311
20
50.649999999999977
10
-340.41105527644322
20
63.649999999999963
42
-0.41421356237326673
10
-339.91105527644316
20
64.149999999999991
10
-326.91105527644322
20
64.14999999999992
42
-0.41421356237299095
0
LWPOLYLINE
5
125
100
AcDbEntity
8
0
100
AcDbPolyline
90
8
70
1
43
0.0
10
-158.93605527644308
20
6.9999999999999973
10
-145.93605527644308
20
6.9999999999999822
42
-0.41421356237314638
10
-145.43605527644306
20
6.4999999999999938
10
-145.43605527644306
20
-6.4999999999999822
42
-0.41421356237314055
10
-145.93605527644308
20
-6.9999999999999938
10
-158.93605527644308
20
-6.9999999999999973
42
-0.41421356237300982
10
-159.43605527644308
20
-6.4999999999999938
10
-159.43605527644308
20
6.500000000000008
42
-0.41421356237302676
0
LWPOLYLINE
5
126
100
AcDbEntity
8
0
100
AcDbPolyline
90
8
70
1
43
0.0
10
-288.81105527644303
20
12.050000000000011
10
-301.81105527644308
20
12.05000000000001
42
-0.41421356237313406
10
-302.31105527644308
20
12.550000000000011
10
-302.31105527644308
20
25.550000000000011
42
-0.41421356237313667
10
-301.81105527644308
20
26.050000000000018
10
-288.81105527644303
20
26.050000000000008
42
-0.41421356237310025
10
-288.31105527644308
20
25.550000000000029
10
-288.31105527644308
20
12.550000000000011
42
-0.41421356237295454
0
LWPOLYLINE
5
127
100
AcDbEntity
8
0
100
AcDbPolyline
90
8
70
1
43
0.0
10
-69.736055276443039
20
-6.9999999999999947
42
0.41421356237314122
10
-69.236055276443011
20
-6.4999999999999938
10
-69.236055276443025
20
6.5
42
0.41421356237308332
10
-69.736055276443039
20
7.0000000000000009
10
-82.736055276443039
20
6.9999999999999911
42
0.41421356237313989
10
-83.236055276443039
20
6.4999999999999858
10
-83.236055276443039
20
-6.4999999999999964
42
0.4142135623730937
10
-82.736055276443039
20
-7.0000000000000107
0
LWPOLYLINE
5
128
100
AcDbEntity
8
0
100
AcDbPolyline
90
8
70
1
43
0.0
10
-326.91105527644316
20
-6.999999999999984
42
0.41421356237326801
10
-326.41105527644322
20
-6.4999999999999787
10
-326.41105527644322
20
6.5000000000000036
42
0.41421356237299423
10
-326.91105527644316
20
6.9999999999999529
10
-339.91105527644316
20
7.0000000000000053
42
0.41421356237326995
10
-340.41105527644311
20
6.5
10
-340.41105527644311
20
-6.4999999999999822
42
0.41421356237294737
10
-339.91105527644316
20
-7.0000000000000142
0
LWPOLYLINE
5
129
100
AcDbEntity
8
0
100
AcDbPolyline
90
8
70
1
43
0.0
10
-221.63605527644307
20
6.5000000000000115
10
-221.63605527644305
20
-6.4999999999999778
42
-0.41421356237304041
10
-222.13605527644307
20
-6.9999999999999858
10
-235.13605527644307
20
-7.0000000000000115
42
-0.41421356237310542
10
-235.6360552764431
20
-6.4999999999999867
10
-235.6360552764431
20
6.4999999999999947
42
-0.4142135623730131
10
-235.13605527644307
20
7
10
-222.13605527644307
20
7.0000000000000018
42
-0.41421356237316853
0
LWPOLYLINE
5
130
100
AcDbEntity
8
0
100
AcDbPolyline
90
8
70
1
43
0.0
10
-88.786055276443037
20
-6.9999999999999938
42
0.41421356237313728
10
-88.286055276443022
20
-6.4999999999999929
10
-88.286055276443022
20
6.4999999999999902
42
0.41421356237309437
10
-88.786055276443037
20
6.9999999999999929
10
-101.78605527644305
20
6.999999999999992
42
0.4142135623730443
10
-102.28605527644305
20
6.4999999999999867
10
-102.28605527644305
20
-6.4999999999999956
42
0.41421356237311585
10
-101.78605527644305
20
-6.999999999999992
0
LWPOLYLINE
5
131
100
AcDbEntity
8
0
100
AcDbPolyline
90
8
70
1
43
0.0
10
-321.3610552764431
20
50.650000000000006
42
0.41421356237300139
10
-320.86105527644315
20
50.150000000000048
10
-307.86105527644304
20
50.150000000000006
42
0.41421356237310025
10
-307.3610552764431
20
50.650000000000013
10
-307.3610552764431
20
63.650000000000006
42
0.41421356237299095
10
-307.86105527644304
20
64.149999999999949
10
-320.86105527644315
20
64.150000000000006
42
0.41421356237328233
10
-321.3610552764431
20
63.650000000000006
0
LWPOLYLINE
5
132
100
AcDbEntity
8
0
100
AcDbPolyline
90
8
70
1
43
0.0
10
-177.98605527644301
20
6.9999999999999982
10
-164.9860552764431
20
6.9999999999999938
42
-0.41421356237313212
10
-164.48605527644307
20
6.4999999999999947
10
-164.48605527644307
20
-6.4999999999999813
42
-0.41421356237301438
10
-164.9860552764431
20
-6.9999999999999893
10
-177.98605527644301
20
-6.9999999999999973
42
-0.41421356237307422
10
-178.48605527644307
20
-6.4999999999999902
10
-178.48605527644307
20
6.4999999999999911
42
-0.41421356237306967
0
LWPOLYLINE
5
133
100
AcDbEntity
8
0
100
AcDbPolyline
90
8
70
1
43
0.0
10
-288.81105527644303
20
31.100000000000009
42
0.41421356237298318
10
-288.31105527644308
20
31.600000000000023
10
-288.31105527644308
20
44.600000000000001
42
0.41421356237313667
10
-288.81105527644303
20
45.100000000000016
10
-301.81105527644308
20
45.100000000000016
42
0.4142135623730222
10
-302.31105527644314
20
44.600000000000009
10
-302.31105527644303
20
31.600000000000016
42
0.41421356237318868
10
-301.81105527644308
20
31.100000000000016
0
LWPOLYLINE
5
134
100
AcDbEntity
8
0
100
AcDbPolyline
90
8
70
1
43
0.0
10
-359.46105527644312
20
-6.4999999999999813
42
0.41421356237316787
10
-358.96105527644318
20
-6.9999999999999352
10
-345.96105527644318
20
-6.9999999999999885
42
0.41421356237326995
10
-345.46105527644323
20
-6.4999999999999716
10
-345.46105527644323
20
6.5000000000000044
42
0.4142135623731692
10
-345.96105527644318
20
6.9999999999999893
10
-358.96105527644318
20
7.0000000000000151
42
0.41421356237326867
10
-359.46105527644312
20
6.5000000000000018
0
LWPOLYLINE
5
135
100
AcDbEntity
8
0
100
AcDbPolyline
90
8
70
1
43
0.0
10
-130.86105527644304
20
12.550000000000001
10
-130.86105527644304
20
25.549999999999997
42
-0.41421356237314705
10
-130.36105527644307
20
26.050000000000008
10
-117.36105527644301
20
26.049999999999997
42
-0.41421356237305601
10
-116.86105527644307
20
25.550000000000001
10
-116.86105527644307
20
12.549999999999999
42
-0.41421356237306384
10
-117.36105527644304
20
12.050000000000002
10
-130.36105527644307
20
12.049999999999992
42
-0.41421356237307555
0
LWPOLYLINE
5
136
100
AcDbEntity
8
0
100
AcDbPolyline
90
8
70
1
43
0.0
10
-116.57355527644306
20
31.600000000000001
42
0.4142135623730846
10
-116.07355527644307
20
31.099999999999959
10
-103.07355527644305
20
31.100000000000001
42
0.41421356237309503
10
-102.57355527644305
20
31.600000000000016
10
-102.57355527644306
20
44.600000000000001
42
0.41421356237310542
10
-103.07355527644305
20
45.100000000000009
10
-116.07355527644307
20
45.099999999999973
42
0.41421356237308982
10
-116.57355527644306
20
44.599999999999994
0
LWPOLYLINE
5
137
100
AcDbEntity
8
0
100
AcDbPolyline
90
8
70
1
43
0.0
10
-202.29855527644307
20
50.650000000000006
10
-202.29855527644304
20
63.649999999999977
42
-0.41421356237307944
10
-201.79855527644307
20
64.149999999999977
10
-188.79855527644307
20
64.149999999999977
42
-0.41421356237307422
10
-188.29855527644301
20
63.649999999999977
10
-188.29855527644301
20
50.64999999999997
42
-0.41421356237310542
10
-188.79855527644307
20
50.149999999999991
10
-201.79855527644307
20
50.149999999999999
42
-0.41421356237313667
0
LWPOLYLINE
5
138
100
AcDbEntity
8
0
100
AcDbPolyline
90
8
70
1
43
0.0
10
-188.0110552764431
20
12.550000000000006
42
0.41421356237314705
10
-187.51105527644313
20
12.050000000000017
10
-174.51105527644307
20
12.050000000000004
42
0.41421356237301177
10
-174.01105527644307
20
12.550000000000004
10
-174.01105527644307
20
25.550000000000004
42
0.41421356237313406
10
-174.51105527644307
20
26.050000000000008
10
-187.5110552764431
20
26.050000000000008
42
0.41421356237303519
10
-188.0110552764431
20
25.550000000000004
0
LWPOLYLINE
5
139
100
AcDbEntity
8
0
100
AcDbPolyline
90
8
70
1
43
0.0
10
-87.998555276443042
20
50.649999999999963
42
0.41421356237312623
10
-87.498555276443028
20
50.150000000000006
10
-74.498555276443057
20
50.149999999999977
42
0.41421356237314183
10
-73.998555276443
20
50.649999999999991
10
-73.998555276443014
20
63.649999999999991
42
0.41421356237313667
10
-74.498555276443
20
64.149999999999977
10
-87.498555276443028
20
64.149999999999991
42
0.41421356237311585
10
-87.998555276443042
20
63.649999999999991
0
LWPOLYLINE
5
140
100
AcDbEntity
8
0
100
AcDbPolyline
90
8
70
1
43
0.0
10
-140.67355527644307
20
44.600000000000001
10
-140.67355527644304
20
31.600000000000016
42
-0.41421356237303519
10
-141.17355527644304
20
31.100000000000009
10
-154.17355527644304
20
31.100000000000001
42
-0.41421356237309243
10
-154.6735552764431
20
31.600000000000005
10
-154.6735552764431
20
44.600000000000001
42
-0.41421356237307422
10
-154.17355527644304
20
45.100000000000009
10
-141.17355527644304
20
45.099999999999987
42
-0.41421356237310542
0
LWPOLYLINE
5
141
100
AcDbEntity
8
0
100
AcDbPolyline
90
8
70
1
43
0.0
10
-126.09855527644307
20
50.64999999999997
10
-126.09855527644307
20
63.649999999999977
42
-0.41421356237310025
10
-125.59855527644308
20
64.149999999999977
10
-112.59855527644305
20
64.149999999999949
42
-0.41421356237310025
10
-112.09855527644305
20
63.649999999999977
10
-112.09855527644308
20
50.64999999999997
42
-0.41421356237310025
10
-112.59855527644307
20
50.14999999999997
10
-125.59855527644305
20
50.149999999999991
42
-0.41421356237307944
0
LWPOLYLINE
5
142
100
AcDbEntity
8
0
100
AcDbPolyline
90
8
70
1
43
0.0
10
-169.74855527644306
20
50.150000000000013
42
0.41421356237304302
10
-169.24855527644311
20
50.650000000000006
10
-169.24855527644308
20
63.650000000000006
42
0.41421356237316265
10
-169.74855527644308
20
64.149999999999977
10
-182.74855527644308
20
64.149999999999963
42
0.41421356237307422
10
-183.24855527644314
20
63.649999999999956
10
-183.24855527644306
20
50.64999999999997
42
0.4142135623730534
10
-182.74855527644308
20
50.149999999999963
0
LWPOLYLINE
5
143
100
AcDbEntity
8
0
100
AcDbPolyline
90
8
70
1
43
0.0
10
-77.973555276443037
20
45.099999999999987
42
0.4142135623730846
10
-78.473555276443051
20
44.599999999999994
10
-78.473555276443079
20
31.600000000000001
42
0.41421356237307683
10
-77.973555276443108
20
31.099999999999987
10
-64.973555276443065
20
31.100000000000001
42
0.41421356237306384
10
-64.473555276443065
20
31.600000000000005
10
-64.473555276443079
20
44.599999999999994
42
0.41421356237312623
10
-64.973555276443065
20
45.09999999999998
0
LWPOLYLINE
5
144
100
AcDbEntity
8
0
100
AcDbPolyline
90
8
70
1
43
0.0
10
-247.5423052764431
20
50.650000000000013
10
-247.5423052764431
20
63.650000000000006
42
-0.41421356237304302
10
-247.0423052764431
20
64.150000000000006
10
-234.04230527644307
20
64.150000000000006
42
-0.41421356237313145
10
-233.54230527644307
20
63.650000000000006
10
-233.54230527644313
20
50.650000000000006
42
-0.41421356237315748
10
-234.04230527644307
20
50.149999999999999
10
-247.04230527644307
20
50.15000000000002
42
-0.41421356237316787
0
LWPOLYLINE
5
145
100
AcDbEntity
8
0
100
AcDbPolyline
90
8
70
1
43
0.0
10
-79.261055276443059
20
12.050000000000001
10
-92.261055276443045
20
12.049999999999997
42
-0.41421356237309243
10
-92.761055276443045
20
12.549999999999999
10
-92.761055276443074
20
25.549999999999997
42
-0.41421356237312362
10
-92.261055276443059
20
26.050000000000004
10
-79.261055276443045
20
26.050000000000004
42
-0.41421356237305079
10
-78.761055276443045
20
25.550000000000001
10
-78.761055276443045
20
12.549999999999999
42
-0.41421356237307033
0
LWPOLYLINE
5
146
100
AcDbEntity
8
0
100
AcDbPolyline
90
8
70
1
43
0.0
10
-173.22355527644308
20
45.100000000000009
42
0.41421356237304302
10
-173.72355527644311
20
44.600000000000009
10
-173.72355527644311
20
31.600000000000016
42
0.41421356237314444
10
-173.22355527644308
20
31.100000000000009
10
-160.22355527644308
20
31.100000000000009
42
0.41421356237298579
10
-159.72355527644308
20
31.600000000000016
10
-159.72355527644308
20
44.600000000000001
42
0.41421356237318346
10
-160.22355527644308
20
45.100000000000009
0
LWPOLYLINE
5
147
100
AcDbEntity
8
0
100
AcDbPolyline
90
8
70
1
43
0.0
10
-230.37355527644308
20
45.100000000000009
10
-217.37355527644308
20
45.100000000000016
42
-0.41421356237307944
10
-216.87355527644311
20
44.600000000000001
10
-216.87355527644314
20
31.600000000000016
42
-0.41421356237304563
10
-217.37355527644308
20
31.100000000000012
10
-230.37355527644308
20
31.100000000000009
42
-0.41421356237313406
10
-230.87355527644308
20
31.600000000000009
10
-230.87355527644306
20
44.600000000000009
42
-0.41421356237307422
0
LWPOLYLINE
5
148
100
AcDbEntity
8
0
100
AcDbPolyline
90
8
70
1
43
0.0
10
-340.41105527644311
20
31.600000000000016
10
-340.41105527644311
20
44.600000000000009
42
-0.41421356237299617
10
-339.91105527644316
20
45.099999999999973
10
-326.91105527644322
20
45.099999999999945
42
-0.41421356237299095
10
-326.41105527644322
20
44.600000000000009
10
-326.41105527644322
20
31.600000000000023
42
-0.41421356237326412
10
-326.91105527644316
20
31.100000000000016
10
-339.91105527644316
20
31.100000000000072
42
-0.41421356237299356
0
LWPOLYLINE
5
149
100
AcDbEntity
8
0
100
AcDbPolyline
90
8
70
1
43
0.0
10
-126.38605527644305
20
6.4999999999999876
10
-126.38605527644305
20
-6.499999999999984
42
-0.41421356237306967
10
-126.88605527644305
20
-6.999999999999992
10
-139.88605527644307
20
-7.0000000000000053
42
-0.4142135623730781
10
-140.38605527644305
20
-6.4999999999999911
10
-140.38605527644307
20
6.4999999999999893
42
-0.41421356237311974
10
-139.88605527644307
20
6.9999999999999938
10
-126.88605527644306
20
7
42
-0.41421356237305601
0
LWPOLYLINE
5
150
100
AcDbEntity
8
0
100
AcDbPolyline
90
8
70
1
43
0.0
10
-216.58605527644309
20
-6.4999999999999876
42
0.41421356237307422
10
-216.08605527644303
20
-6.9999999999999947
10
-203.08605527644303
20
-6.9999999999999876
42
0.414213562373136
10
-202.58605527644303
20
-6.4999999999999787
10
-202.58605527644303
20
6.4999999999999964
42
0.41421356237313534
10
-203.08605527644303
20
7.0000000000000178
10
-216.08605527644303
20
6.9999999999999982
42
0.41421356237306967
10
-216.58605527644309
20
6.4999999999999929
0
LWPOLYLINE
5
151
100
AcDbEntity
8
0
100
AcDbPolyline
90
8
70
1
43
0.0
10
-212.11105527644307
20
25.550000000000004
10
-212.11105527644304
20
12.550000000000008
42
-0.41421356237303519
10
-212.61105527644307
20
12.050000000000008
10
-225.6110552764431
20
12.049999999999986
42
-0.41421356237310281
10
-226.1110552764431
20
12.550000000000008
10
-226.1110552764431
20
25.550000000000004
42
-0.41421356237308982
10
-225.6110552764431
20
26.050000000000011
10
-212.61105527644307
20
26.050000000000001
42
-0.41421356237317047
0
LWPOLYLINE
5
152
100
AcDbEntity
8
0
100
AcDbPolyline
90
8
70
1
43
0.0
10
-307.3610552764431
20
6.5000000000000027
42
0.41421356237299356
10
-307.86105527644304
20
6.9999999999999432
10
-320.86105527644315
20
7.0000000000000036
42
0.41421356237329077
10
-321.3610552764431
20
6.4999999999999991
10
-321.3610552764431
20
-6.499999999999984
42
0.4142135623729975
10
-320.86105527644315
20
-6.999999999999944
10
-307.86105527644304
20
-6.9999999999999849
42
0.41421356237311063
10
-307.3610552764431
20
-6.4999999999999734
0
LWPOLYLINE
5
153
100
AcDbEntity
8
0
100
AcDbPolyline
90
8
70
1
43
0.0
10
-320.86105527644315
20
26.050000000000018
42
0.41421356237329016
10
-321.3610552764431
20
25.550000000000001
10
-321.3610552764431
20
12.550000000000011
42
0.41421356237294804
10
-320.86105527644315
20
12.049999999999986
10
-307.86105527644304
20
12.050000000000015
42
0.41421356237310542
10
-307.3610552764431
20
12.550000000000011
10
-307.3610552764431
20
25.550000000000015
42
0.41421356237299878
10
-307.86105527644304
20
26.049999999999983
0
LWPOLYLINE
5
154
100
AcDbEntity
8
0
100
AcDbPolyline
90
8
70
1
43
0.0
10
-320.86105527644315
20
45.100000000000016
10
-307.86105527644304
20
45.099999999999987
42
-0.41421356237310025
10
-307.3610552764431
20
44.600000000000009
10
-307.3610552764431
20
31.600000000000023
42
-0.41421356237310802
10
-307.86105527644304
20
31.100000000000016
10
-320.86105527644304
20
31.100000000000016
42
-0.41421356237294937
10
-321.3610552764431
20
31.600000000000023
10
-321.3610552764431
20
44.600000000000009
42
-0.41421356237328233
0
LWPOLYLINE
5
155
100
AcDbEntity
8
0
100
AcDbPolyline
90
8
70
1
43
0.0
10
-302.31105527644308
20
50.650000000000013
42
0.41421356237313667
10
-301.81105527644308
20
50.150000000000006
10
-288.81105527644303
20
50.149999999999999
42
0.41421356237304818
10
-288.31105527644308
20
50.649999999999977
10
-288.31105527644308
20
63.649999999999984
42
0.41421356237310542
10
-288.81105527644303
20
64.150000000000006
10
-301.81105527644308
20
64.149999999999977
42
0.41421356237311063
10
-302.31105527644308
20
63.650000000000006
0
LWPOLYLINE
5
156
100
AcDbEntity
8
0
100
AcDbPolyline
90
8
70
1
43
0.0
10
-107.83605527644309
20
-6.999999999999992
10
-120.83605527644306
20
-7.0000000000000089
42
-0.4142135623730781
10
-121.33605527644303
20
-6.4999999999999947
10
-121.33605527644303
20
6.4999999999999876
42
-0.41421356237313273
10
-120.83605527644306
20
6.9999999999999929
10
-107.83605527644309
20
7.0000000000000027
42
-0.41421356237307683
10
-107.33605527644303
20
6.4999999999999911
10
-107.33605527644306
20
-6.4999999999999849
42
-0.41421356237310936
0
LWPOLYLINE
5
157
100
AcDbEntity
8
0
100
AcDbPolyline
90
8
70
1
43
0.0
10
-302.31105527644308
20
-6.4999999999999911
10
-302.31105527644308
20
6.4999999999999982
42
-0.41421356237313339
10
-301.81105527644308
20
7.0000000000000027
10
-288.81105527644303
20
7.0000000000000178
42
-0.41421356237307944
10
-288.31105527644308
20
6.5000000000000018
10
-288.31105527644308
20
-6.4999999999999751
42
-0.41421356237310025
10
-288.81105527644303
20
-6.9999999999999858
10
-301.81105527644308
20
-6.9999999999999885
42
-0.41421356237313078
0
LWPOLYLINE
5
158
100
AcDbEntity
8
0
100
AcDbPolyline
90
8
70
1
43
0.0
10
-326.91105527644316
20
12.050000000000015
10
-339.91105527644316
20
12.050000000000008
42
-0.41421356237294804
10
-340.41105527644311
20
12.550000000000011
10
-340.41105527644322
20
25.550000000000004
42
-0.41421356237326412
10
-339.91105527644316
20
26.050000000000018
10
-326.91105527644316
20
26.050000000000011
42
-0.41421356237294416
10
-326.41105527644322
20
25.550000000000015
10
-326.41105527644322
20
12.550000000000011
42
-0.41421356237326673
0
LWPOLYLINE
5
159
100
AcDbEntity
8
0
100
AcDbPolyline
90
8
70
1
43
0.0
10
-197.53605527644311
20
-6.4999999999999902
42
0.41421356237312623
10
-197.03605527644314
20
-7.0000000000000151
10
-184.03605527644314
20
-6.999999999999992
42
0.41421356237307227
10
-183.53605527644308
20
-6.4999999999999805
10
-183.53605527644308
20
6.4999999999999956
42
0.4142135623731022
10
-184.03605527644314
20
6.9999999999999893
10
-197.03605527644311
20
6.9999999999999973
42
0.41421356237303392
10
-197.53605527644311
20
6.5000000000000107
0
LWPOLYLINE
5
160
100
AcDbEntity
8
0
100
AcDbPolyline
90
8
70
1
43
0.0
10
-211.82355527644307
20
31.600000000000009
42
0.41421356237310542
10
-211.32355527644307
20
31.099999999999987
10
-198.32355527644307
20
31.100000000000009
42
0.41421356237308982
10
-197.8235552764431
20
31.599999999999998
10
-197.8235552764431
20
44.599999999999994
42
0.41421356237307944
10
-198.32355527644307
20
45.100000000000023
10
-211.32355527644307
20
45.099999999999994
42
0.41421356237307422
10
-211.82355527644305
20
44.600000000000009
0
LWPOLYLINE
5
161
100
AcDbEntity
8
0
100
AcDbPolyline
90
8
70
1
43
0.0
10
-149.91105527644305
20
12.550000000000004
10
-149.91105527644305
20
25.550000000000001
42
-0.41421356237314183
10
-149.41105527644305
20
26.050000000000008
10
-136.41105527644302
20
26.050000000000011
42
-0.41421356237305601
10
-135.91105527644308
20
25.550000000000018
10
-135.91105527644308
20
12.550000000000004
42
-0.41421356237308721
10
-136.41105527644305
20
12.050000000000002
10
-149.41105527644305
20
12.049999999999992
42
-0.41421356237313928
0
LWPOLYLINE
5
162
100
AcDbEntity
8
0
100
AcDbPolyline
90
8
70
1
43
0.0
10
-84.023555276443034
20
31.100000000000001
42
0.41421356237309243
10
-83.523555276443034
20
31.600000000000009
10
-83.523555276443034
20
44.599999999999994
42
0.41421356237304302
10
-84.023555276443005
20
45.100000000000044
10
-97.023555276443062
20
45.099999999999994
42
0.41421356237305862
10
-97.523555276443091
20
44.599999999999994
10
-97.523555276443091
20
31.600000000000009
42
0.41421356237307422
10
-97.023555276443034
20
31.100000000000001
0
LWPOLYLINE
5
163
100
AcDbEntity
8
0
100
AcDbPolyline
90
8
70
1
43
0.0
10
-192.77355527644303
20
31.600000000000005
10
-192.77355527644303
20
44.600000000000001
42
-0.41421356237290774
10
-192.27355527644303
20
45.099999999999966
10
-179.27355527644306
20
45.09999999999998
42
-0.41421356237316265
10
-178.77355527644306
20
44.600000000000001
10
-178.77355527644301
20
31.600000000000016
42
-0.4142135623730378
10
-179.27355527644306
20
31.100000000000009
10
-192.27355527644303
20
31.099999999999987
42
-0.41421356237314444
0
LWPOLYLINE
5
164
100
AcDbEntity
8
0
100
AcDbPolyline
90
8
70
1
43
0.0
10
-131.64855527644303
20
50.149999999999999
10
-144.64855527644303
20
50.149999999999999
42
-0.41421356237317308
10
-145.14855527644303
20
50.649999999999963
10
-145.14855527644303
20
63.649999999999977
42
-0.41421356237314183
10
-144.64855527644303
20
64.149999999999977
10
-131.64855527644303
20
64.149999999999963
42
-0.41421356237304302
10
-131.14855527644301
20
63.649999999999977
10
-131.14855527644301
20
50.64999999999997
42
-0.41421356237311063
0
LWPOLYLINE
5
165
100
AcDbEntity
8
0
100
AcDbPolyline
90
52
70
1
43
0.0
10
-270.24880527644308
20
43.6958376195334
42
0.167347098005625
10
-270.35480527644313
20
43.387999999999984
10
-270.35480527644313
20
37.63799999999997
42
0.16734709800542272
10
-270.24880527644308
20
37.330162380466582
42
-0.16734709800552189
10
-270.14280527644308
20
37.022324760933181
10
-270.14280527644314
20
36.07500000000001
42
-0.41421356237300139
10
-270.64280527644308
20
35.575000000000017
10
-270.85480527644313
20
35.57500000000001
42
0.41421356237292073
10
-271.35480527644307
20
35.075000000000003
10
-271.35480527644313
20
22.074999999999996
42
0.41421356237313667
10
-270.85480527644313
20
21.575000000000017
10
-269.47355527644311
20
21.574999999999967
42
-0.41421356237301438
10
-268.97355527644311
20
21.074999999999989
10
-268.97355527644311
20
20.512000000000008
42
-0.41421356237301438
10
-269.47355527644311
20
20.012
10
-269.85480527644307
20
20.012000000000008
42
0.41421356237303392
10
-270.35480527644313
20
19.512000000000011
10
-270.35480527644313
20
13.762000000000009
42
0.41421356237313794
10
-269.85480527644307
20
13.262000000000011
10
-269.47355527644316
20
13.261999999999949
42
-0.4142135623730378
10
-268.97355527644316
20
12.762000000000004
10
-268.97355527644311
20
12.55000000000001
42
0.41421356237313794
10
-268.47355527644305
20
12.05000000000001
10
-255.47355527644302
20
12.05000000000001
42
0.41421356237304818
10
-254.97355527644305
20
12.550000000000008
10
-254.97355527644302
20
25.550000000000026
42
0.41421356237316265
10
-255.47355527644302
20
26.049999999999997
10
-256.85480527644313
20
26.04999999999999
42
-0.41421356237304041
10
-257.35480527644307
20
26.550000000000011
10
-257.35480527644307
20
30.60000000000003
42
-0.41421356237298057
10
-256.85480527644313
20
31.100000000000023
10
-236.4235552764431
20
31.100000000000012
42
0.41421356237303258
10
-235.9235552764431
20
31.600000000000016
10
-235.9235552764431
20
44.600000000000001
42
0.41421356237316265
10
-236.4235552764431
20
45.099999999999987
10
-239.01680527644305
20
45.099999999999987
42
-0.41421356237311063
10
-239.51680527644305
20
45.600000000000023
42
0.41421356237316265
10
-240.01680527644308
20
46.099999999999994
10
-245.76680527644314
20
46.100000000000001
42
0.41421356237312101
10
-246.26680527644314
20
45.600000000000023
42
-0.4142135623730846
10
-246.76680527644311
20
45.099999999999994
10
-261.32980527644304
20
45.099999999999973
42
0.41421356237303258
10
-261.8298052764431
20
44.600000000000009
10
-261.8298052764431
20
44.387999999999977
42
-0.41421356237304818
10
-262.3298052764431
20
43.887999999999977
10
-262.89280527644303
20
43.887999999999977
42
-0.41421356237295975
10
-263.39280527644303
20
44.388000000000005
10
-263.39280527644303
20
45.59999999999998
42
0.41421356237313667
10
-263.89280527644308
20
46.09999999999998
10
-269.64280527644303
20
46.09999999999998
42
0.41421356237312101
10
-270.14280527644308
20
45.599999999999987
10
-270.14280527644308
20
44.003675239066801
42
-0.16734709800550968
0
LWPOLYLINE
5
166
100
AcDbEntity
8
0
100
AcDbPolyline
90
20
70
1
43
0.0
10
-344.46105527644318
20
43.387999999999977
42
0.41421356237295454
10
-344.96105527644318
20
43.888000000000019
42
-0.41421356237316787
10
-345.46105527644318
20
44.38799999999997
10
-345.46105527644323
20
44.59999999999998
42
0.41421356237300139
10
-345.96105527644318
20
45.099999999999945
10
-358.96105527644318
20
45.100000000000016
42
0.41421356237327711
10
-359.46105527644312
20
44.600000000000009
10
-359.46105527644312
20
12.550000000000015
42
0.41421356237294804
10
-358.96105527644318
20
12.04999999999999
10
-345.96105527644318
20
12.050000000000017
42
0.41421356237326673
10
-345.46105527644323
20
12.550000000000015
10
-345.46105527644323
20
12.762000000000013
42
-0.41421356237331614
10
-344.96105527644318
20
13.262000000000016
42
0.41421356237322898
10
-344.46105527644329
20
13.762000000000015
10
-344.46105527644318
20
19.512000000000015
42
0.41421356237294804
10
-344.96105527644318
20
20.012000000000008
42
-0.41421356237332135
10
-345.46105527644323
20
20.512000000000011
10
-345.46105527644318
20
36.638000000000005
42
-0.41421356237307422
10
-344.96105527644318
20
37.137999999999977
42
0.41421356237323032
10
-344.46105527644329
20
37.637999999999977
0
LWPOLYLINE
5
167
100
AcDbEntity
8
0
100
AcDbPolyline
90
8
70
1
43
0.0
10
5.8014447235569602
20
12.549999999999994
10
5.8014447235569619
20
25.549999999999994
42
-0.41421356237309503
10
6.3014447235569513
20
26.050000000000001
10
7.3014447235569566
20
26.050000000000004
42
-0.41421356237308915
10
7.8014447235569575
20
25.550000000000011
10
7.8014447235569575
20
12.549999999999994
42
-0.41421356237309437
10
7.3014447235569557
20
12.049999999999997
10
6.3014447235569566
20
12.049999999999997
42
-0.4142135623730937
0
LWPOLYLINE
5
168
100
AcDbEntity
8
0
100
AcDbPolyline
90
8
70
1
43
0.0
10
-31.636055276443038
20
-6.9999999999999947
10
-44.636055276443059
20
-6.9999999999999982
42
-0.41421356237309698
10
-45.136055276443059
20
-6.4999999999999964
10
-45.136055276443074
20
6.499999999999984
42
-0.41421356237309115
10
-44.636055276443059
20
6.9999999999999885
10
-31.636055276443038
20
6.9999999999999849
42
-0.41421356237310347
10
-31.136055276443038
20
6.4999999999999991
10
-31.136055276443035
20
-6.4999999999999876
42
-0.41421356237309309
0
LWPOLYLINE
5
169
100
AcDbEntity
8
0
100
AcDbPolyline
90
8
70
1
43
0.0
10
-49.398555276443041
20
64.149999999999963
42
0.41421356237311585
10
-49.898555276443055
20
63.649999999999963
10
-49.898555276443062
20
50.649999999999984
42
0.41421356237308982
10
-49.398555276443062
20
50.149999999999991
10
-36.398555276443048
20
50.149999999999949
42
0.41421356237311324
10
-35.898555276443027
20
50.649999999999963
10
-35.898555276443041
20
63.649999999999963
42
0.41421356237309243
10
-36.398555276443048
20
64.149999999999977
0
LWPOLYLINE
5
170
100
AcDbEntity
8
0
100
AcDbPolyline
90
8
70
1
43
0.0
10
-13.679805276443046
20
45.099999999999994
10
4.9201947235569605
20
45.100000000000009
42
-0.41421356237309342
10
5.4201947235569614
20
44.600000000000001
10
5.4201947235569614
20
31.600000000000005
42
-0.41421356237310575
10
4.9201947235569534
20
31.099999999999998
10
-13.679805276443046
20
31.100000000000001
42
-0.41421356237310281
10
-14.179805276443044
20
31.599999999999998
10
-14.179805276443055
20
44.600000000000009
42
-0.41421356237307555
0
LWPOLYLINE
5
171
100
AcDbEntity
8
0
100
AcDbPolyline
90
8
70
1
43
0.0
10
1.7014447235569561
20
12.049999999999997
42
0.41421356237309914
10
2.2014447235569525
20
12.549999999999994
10
2.2014447235569548
20
25.550000000000011
42
0.41421356237309209
10
1.7014447235569574
20
26.050000000000001
10
-11.29855527644305
20
26.050000000000001
42
0.41421356237310281
10
-11.798555276443047
20
25.549999999999983
10
-11.798555276443047
20
12.54999999999999
42
0.41421356237310414
10
-11.298555276443052
20
12.049999999999997
0
LWPOLYLINE
5
172
100
AcDbEntity
8
0
100
AcDbPolyline
90
8
70
1
43
0.0
10
-40.373555276443042
20
31.599999999999998
42
0.41421356237310281
10
-39.873555276443035
20
31.099999999999987
10
-26.873555276443035
20
31.099999999999998
42
0.41421356237309243
10
-26.373555276443025
20
31.600000000000005
10
-26.373555276443032
20
44.599999999999994
42
0.41421356237306384
10
-26.873555276443032
20
45.099999999999994
10
-39.873555276443035
20
45.099999999999952
42
0.41421356237308204
10
-40.373555276443049
20
44.599999999999994
0
LWPOLYLINE
5
173
100
AcDbEntity
8
0
100
AcDbPolyline
90
8
70
1
43
0.0
10
-26.086055276443041
20
-6.4999999999999893
10
-26.086055276443034
20
6.4999999999999822
42
-0.41421356237310281
10
-25.586055276443034
20
6.9999999999999876
10
-12.586055276443036
20
6.9999999999999911
42
-0.41421356237309176
10
-12.086055276443046
20
6.4999999999999982
10
-12.086055276443052
20
-6.4999999999999893
42
-0.41421356237308982
10
-12.586055276443048
20
-6.9999999999999973
10
-25.586055276443041
20
-6.9999999999999964
42
-0.41421356237310025
0
LWPOLYLINE
5
174
100
AcDbEntity
8
0
100
AcDbPolyline
90
8
70
1
43
0.0
10
6.9639447235569563
20
6.4999999999999991
10
6.9639447235569563
20
-6.4999999999999902
42
-0.38227684096786085
10
6.5189611530995615
20
-6.9969639750327843
10
-6.5161277743549109
20
-6.9996027368425082
42
-0.42593870751447943
10
-7.0360552764430473
20
-6.4999999999999991
10
-7.0360552764430482
20
6.4999999999999813
42
-0.4142135623731048
10
-6.5360552764430446
20
6.999999999999984
10
6.4639447235569563
20
6.9999999999999858
42
-0.41421356237309503
0
LWPOLYLINE
5
175
100
AcDbEntity
8
0
100
AcDbPolyline
90
8
70
1
43
0.0
10
-35.611055276443047
20
12.549999999999997
10
-35.611055276443054
20
25.549999999999997
42
-0.41421356237312101
10
-35.111055276443047
20
26.050000000000001
10
-22.111055276443039
20
26.049999999999983
42
-0.41421356237309243
10
-21.611055276443043
20
25.549999999999997
10
-21.611055276443043
20
12.549999999999994
42
-0.41421356237309503
10
-22.111055276443039
20
12.049999999999999
10
-35.111055276443047
20
12.049999999999997
42
-0.41421356237309631
0
LWPOLYLINE
5
176
100
AcDbEntity
8
0
100
AcDbPolyline
90
20
70
1
43
0.0
10
-20.005305276443043
20
64.149999999999991
10
-3.8793052764430369
20
64.149999999999949
42
0.41421356237311779
10
-3.379305276443028
20
64.649999999999977
42
-0.41421356237312201
10
-2.8793052764430369
20
65.149999999999991
10
2.8706947235569609
20
65.149999999999991
42
-0.41421356237308821
10
3.3706947235569604
20
64.649999999999977
42
0.41421356237309764
10
3.8706947235569613
20
64.149999999999977
10
4.0826947235569619
20
64.149999999999963
42
-0.4142135623730866
10
4.5826947235569628
20
63.649999999999963
10
4.5826947235569619
20
50.649999999999942
42
-0.41421356237309209
10
4.0826947235569504
20
50.149999999999977
10
-30.348555276443033
20
50.14999999999997
42
-0.41421356237309503
10
-30.84855527644304
20
50.649999999999963
10
-30.848555276443026
20
63.649999999999949
42
-0.41421356237310802
10
-30.348555276443033
20
64.149999999999977
10
-27.755305276443035
20
64.149999999999977
42
0.41421356237308982
10
-27.255305276443046
20
64.649999999999991
42
-0.41421356237312623
10
-26.755305276443039
20
65.149999999999977
10
-21.005305276443039
20
65.149999999999991
42
-0.4142135623730846
10
-20.505305276443039
20
64.649999999999991
42
0.41421356237312362
0
LWPOLYLINE
5
177
100
AcDbEntity
8
0
100
AcDbPolyline
90
8
70
1
43
0.0
10
-59.711055276443041
20
25.550000000000015
42
0.41421356237310281
10
-60.211055276443034
20
26.050000000000008
10
-73.211055276443034
20
26.050000000000004
42
0.41421356237310025
10
-73.711055276443062
20
25.549999999999997
10
-73.711055276443062
20
12.549999999999999
42
0.41421356237304952
10
-73.211055276443034
20
12.050000000000001
10
-60.211055276443055
20
12.050000000000001
42
0.41421356237310025
10
-59.711055276443041
20
12.549999999999999
0
LWPOLYLINE
5
178
100
AcDbEntity
8
0
100
AcDbPolyline
90
8
70
1
43
0.0
10
-321.3610552764431
20
69.699999999999989
10
-321.36105527644315
20
82.69999999999996
42
-0.41421356237321988
10
-320.86105527644315
20
83.199999999999946
10
-307.8610552764431
20
83.199999999999946
42
-0.41421356237293894
10
-307.3610552764431
20
82.69999999999996
10
-307.3610552764431
20
69.699999999999989
42
-0.41421356237292856
10
-307.86105527644304
20
69.199999999999946
10
-320.86105527644321
20
69.200000000000003
42
-0.41421356237289214
0
LWPOLYLINE
5
179
100
AcDbEntity
8
0
100
AcDbPolyline
90
8
70
1
43
0.0
10
-340.41105527644311
20
69.699999999999989
10
-340.41105527644311
20
82.69999999999996
42
-0.41421356237294937
10
-339.91105527644316
20
83.199999999999946
10
-326.91105527644316
20
83.199999999999946
42
-0.41421356237293894
10
-326.41105527644322
20
82.69999999999996
10
-326.41105527644311
20
69.699999999999989
42
-0.41421356237294937
10
-326.91105527644316
20
69.199999999999946
10
-339.91105527644322
20
69.200000000000003
42
-0.41421356237289214
0
LWPOLYLINE
5
180
100
AcDbEntity
8
0
100
AcDbPolyline
90
20
70
1
43
0.0
10
-359.46105527644312
20
50.650000000000013
10
-359.46105527644312
20
82.700000000000017
42
-0.41421356237300139
10
-358.96105527644318
20
83.199999999999946
10
-345.96105527644318
20
83.199999999999946
42
-0.41421356237293894
10
-345.46105527644323
20
82.69999999999996
10
-345.46105527644306
20
82.488000000000014
42
0.41421356237331353
10
-344.96105527644289
20
81.988000000000056
42
-0.41421356237291812
10
-344.46105527644318
20
81.487999999999957
10
-344.46105527644318
20
75.737999999999943
42
-0.41421356237299095
10
-344.96105527644318
20
75.238
42
0.41421356237311585
10
-345.46105527644295
20
74.738
10
-345.46105527644318
20
58.612000000000002
42
0.4142135623732407
10
-344.96105527644318
20
58.111999999999881
42
-0.41421356237321988
10
-344.46105527644318
20
57.611999999999981
10
-344.46105527644335
20
51.861999999999981
42
-0.41421356237318346
10
-344.96105527644318
20
51.361999999999981
42
0.41421356237307944
10
-345.46105527644323
20
50.861999999999973
10
-345.46105527644323
20
50.649999999999977
42
-0.41421356237300139
10
-345.96105527644318
20
50.150000000000006
10
-358.96105527644306
20
50.150000000000077
42
-0.41421356237299095
0
LWPOLYLINE
5
181
100
AcDbEntity
8
0
100
AcDbPolyline
90
8
70
1
43
0.0
10
-45.923555276443068
20
31.100000000000001
10
-58.923555276443025
20
31.099999999999994
42
-0.41421356237310542
10
-59.423555276443032
20
31.600000000000001
10
-59.423555276443032
20
44.599999999999994
42
-0.41421356237310025
10
-58.923555276443025
20
45.099999999999987
10
-45.923555276443047
20
45.099999999999987
42
-0.41421356237310025
10
-45.423555276443047
20
44.59999999999998
10
-45.423555276443039
20
31.599999999999987
42
-0.41421356237310542
0
LWPOLYLINE
5
182
100
AcDbEntity
8
0
100
AcDbPolyline
90
8
70
1
43
0.0
10
-54.66105527644303
20
12.549999999999997
42
0.4142135623730781
10
-54.161055276443058
20
12.050000000000001
10
-41.161055276443065
20
12.049999999999999
42
0.41421356237310281
10
-40.661055276443044
20
12.549999999999999
10
-40.661055276443044
20
25.550000000000001
42
0.41421356237309503
10
-41.161055276443044
20
26.050000000000004
10
-54.161055276443022
20
26.050000000000004
42
0.414213562373069
10
-54.66105527644303
20
25.549999999999997
0
LWPOLYLINE
5
183
100
AcDbEntity
8
0
100
AcDbPolyline
90
8
70
1
43
0.0
10
-50.686055276443049
20
-6.9999999999999938
10
-63.686055276443049
20
-6.9999999999999964
42
-0.41421356237308071
10
-64.186055276443057
20
-6.4999999999999956
10
-64.186055276443057
20
6.4999999999999849
42
-0.41421356237307094
10
-63.686055276443049
20
6.9999999999999893
10
-50.686055276443049
20
6.9999999999999893
42
-0.41421356237309631
10
-50.186055276443049
20
6.4999999999999893
10
-50.186055276443042
20
-6.4999999999999867
42
-0.41421356237308721
0
LWPOLYLINE
5
184
100
AcDbEntity
8
0
100
AcDbPolyline
90
8
70
1
43
0.0
10
-176.3562499999999
20
82.700000000000273
10
-176.35624999999987
20
69.700000000000358
42
-0.41421356237310025
10
-176.85624999999987
20
69.200000000000344
10
-235.09999999999985
20
69.200000000000529
42
-0.41421356237309503
10
-235.59999999999985
20
69.700000000000543
10
-235.5999999999998
20
82.700000000000358
42
-0.41421356237309503
10
-235.0999999999998
20
83.200000000000358
10
-176.85624999999987
20
83.200000000000244
42
-0.41421356237309503
0
LWPOLYLINE
5
185
100
AcDbEntity
8
0
100
AcDbPolyline
90
8
70
1
43
0.0
10
-159.04999999999987
20
68.200000000000401
10
-174.32499999999979
20
68.200000000000443
42
-0.41421356237309503
10
-174.82499999999982
20
68.700000000000443
10
-174.82499999999982
20
81.700000000000614
42
-0.41421356237309503
10
-174.32499999999979
20
82.200000000000628
10
-159.04999999999981
20
82.200000000000571
42
-0.41421356237309503
10
-158.54999999999981
20
81.700000000000571
10
-158.54999999999987
20
68.700000000000387
42
-0.41421356237308982
0
LWPOLYLINE
5
186
100
AcDbEntity
8
0
100
AcDbPolyline
90
14
70
1
43
0.0
10
-78.724999999999781
20
82.700000000000131
42
0.41421356237298057
10
-78.224999999999781
20
82.200000000000301
10
-63.79999999999982
20
82.200000000000244
42
-0.41421356237309503
10
-63.299999999999827
20
81.70000000000023
10
-63.299999999999848
20
68.700000000000159
42
-0.41421356237309503
10
-63.799999999999848
20
68.200000000000159
10
-79.074999999999861
20
68.200000000000202
42
-0.41421356237309503
10
-79.574999999999847
20
68.700000000000202
42
0.4142135623730846
10
-80.074999999999861
20
69.200000000000173
10
-94.60624999999979
20
69.200000000000216
42
-0.41421356237309503
10
-95.10624999999979
20
69.70000000000023
10
-95.106249999999775
20
82.700000000000131
42
-0.4142135623730846
10
-94.606249999999775
20
83.200000000000131
10
-79.224999999999795
20
83.200000000000145
42
-0.41421356237310025
0
LWPOLYLINE
5
187
100
AcDbEntity
8
0
100
AcDbPolyline
90
20
70
1
43
0.0
10
-107.29999999999978
20
82.700000000000173
42
0.41421356237297013
10
-106.79999999999978
20
82.200000000000387
10
-97.137499999999818
20
82.200000000000344
42
-0.41421356237309503
10
-96.637499999999804
20
81.70000000000033
10
-96.637499999999861
20
68.700000000000244
42
-0.41421356237308982
10
-97.137499999999847
20
68.200000000000244
10
-107.64999999999985
20
68.200000000000273
42
-0.41421356237309503
10
-108.14999999999985
20
68.700000000000287
42
0.41421356237305862
10
-108.64999999999984
20
69.200000000000244
10
-119.94999999999983
20
69.200000000000273
42
0.41421356237310542
10
-120.44999999999985
20
68.700000000000273
42
-0.41421356237307422
10
-120.94999999999985
20
68.200000000000315
10
-126.69999999999985
20
68.20000000000033
42
-0.41421356237309503
10
-127.19999999999985
20
68.70000000000033
42
0.4142135623730534
10
-127.69999999999985
20
69.200000000000301
10
-149.37499999999983
20
69.20000000000033
42
-0.41421356237309503
10
-149.87499999999983
20
69.70000000000033
10
-149.8749999999998
20
82.700000000000244
42
-0.4142135623730846
10
-149.37499999999977
20
83.20000000000023
10
-107.7999999999998
20
83.200000000000188
42
-0.41421356237309503
0
LWPOLYLINE
5
188
100
AcDbEntity
8
0
100
AcDbPolyline
90
14
70
1
43
0.0
10
-57.506249999999788
20
82.200000000000216
42
0.41421356237305862
10
-57.00624999999981
20
82.700000000000216
42
-0.41421356237299095
10
-56.506249999999802
20
83.200000000000045
10
6.5000000000001723
20
83.200000000000003
42
-0.41421356237309243
10
7.0000000000001688
20
82.699999999999989
10
7.0000000000001483
20
69.699999999999989
42
-0.4142135623730957
10
6.5000000000001492
20
69.199999999999989
10
-53.274999999999849
20
69.200000000000131
42
0.41421356237309503
10
-53.774999999999842
20
68.700000000000131
42
-0.41421356237307944
10
-54.274999999999842
20
68.200000000000159
10
-60.024999999999849
20
68.200000000000159
42
-0.41421356237309503
10
-60.524999999999849
20
68.700000000000159
10
-60.524999999999821
20
81.700000000000216
42
-0.41421356237309503
10
-60.024999999999821
20
82.200000000000216
0
LWPOLYLINE
5
189
100
AcDbEntity
8
0
100
AcDbPolyline
90
8
70
1
43
0.0
10
-134.6423052764431
20
66.749999999999659
10
-51.198555276443045
20
66.749999999999645
42
-0.41421356237310025
10
-50.698555276443038
20
66.249999999999645
10
-50.698555276443045
20
66.149999999999636
42
-0.41421356237309503
10
-51.198555276443045
20
65.649999999999636
10
-134.6423052764431
20
65.649999999999636
42
-0.41421356237309503
10
-135.1423052764431
20
66.14999999999965
10
-135.1423052764431
20
66.249999999999659
42
-0.41421356237309503
0
LWPOLYLINE
5
190
100
AcDbEntity
8
0
100
AcDbPolyline
90
8
70
1
43
0.0
10
-207.06105527643422
20
10.549999999999958
10
-155.93605519602266
20
10.54999999999996
42
-0.41421356237309503
10
-155.43605519602266
20
10.049999999999953
10
-155.43605519602266
20
9.9499999999999531
42
-0.41421356237309503
10
-155.93605519602266
20
9.4499999999999513
10
-207.06105527643422
20
9.4499999999999478
42
-0.41421356237309437
10
-207.56105527643425
20
9.9499999999999549
10
-207.56105527643425
20
10.049999999999955
42
-0.41421356237309503
0
LWPOLYLINE
5
191
100
AcDbEntity
8
0
100
AcDbPolyline
90
8
70
1
43
0.0
10
-40.936055196074996
20
9.4499999999999478
10
-83.136055196022653
20
9.4499999999999424
42
-0.41421356237309437
10
-83.636055196022667
20
9.9499999999999478
10
-83.636055196022667
20
10.049999999999947
42
-0.41421356237309503
10
-83.136055196022653
20
10.549999999999947
10
-40.936055196075003
20
10.549999999999944
42
-0.41421356237309503
10
-40.436055196075003
20
10.049999999999946
10
-40.436055196074996
20
9.949999999999946
42
-0.41421356237309503
0
LWPOLYLINE
5
192
100
AcDbEntity
8
0
100
AcDbPolyline
90
8
70
1
43
0.0
10
-85.236055196022676
20
9.4499999999999496
10
-86.436055196022679
20
9.4499999999999424
42
-0.41421356237309437
10
-86.936055196022693
20
9.9499999999999478
10
-86.936055196022664
20
10.049999999999947
42
-0.41421356237309503
10
-86.436055196022664
20
10.549999999999947
10
-85.236055196022676
20
10.549999999999955
42
-0.41421356237309503
10
-84.736055196022662
20
10.049999999999947
10
-84.736055196022662
20
9.9499999999999478
42
-0.41421356237309503
0
LWPOLYLINE
5
193
100
AcDbEntity
8
0
100
AcDbPolyline
90
8
70
1
43
0.0
10
-209.16105527643424
20
9.4499999999999567
10
-210.36105527643423
20
9.4499999999999496
42
-0.41421356237309437
10
-210.86105527643423
20
9.9499999999999549
10
-210.86105527643423
20
10.049999999999955
42
-0.41421356237309503
10
-210.36105527643423
20
10.549999999999955
10
-209.16105527643424
20
10.549999999999962
42
-0.41421356237309503
10
-208.66105527643424
20
10.049999999999955
10
-208.66105527643424
20
9.9499999999999549
42
-0.41421356237309503
0
LWPOLYLINE
5
194
100
AcDbEntity
8
0
100
AcDbPolyline
90
8
70
1
43
0.0
10
-195.24230527644309
20
65.64999999999965
10
-196.44230527644311
20
65.649999999999636
42
-0.41421356237309503
10
-196.94230527644311
20
66.14999999999965
10
-196.94230527644308
20
66.249999999999659
42
-0.41421356237309503
10
-196.44230527644308
20
66.749999999999659
10
-195.24230527644306
20
66.749999999999659
42
-0.41421356237309503
10
-194.74230527644306
20
66.249999999999659
10
-194.74230527644309
20
66.14999999999965
42
-0.41421356237309503
0
LWPOLYLINE
5
195
100
AcDbEntity
8
0
100
AcDbPolyline
90
8
70
1
43
0.0
10
-47.898555276443048
20
65.649999999999636
10
-49.098555276443044
20
65.649999999999636
42
-0.41421356237309503
10
-49.598555276443044
20
66.149999999999636
10
-49.598555276443044
20
66.249999999999645
42
-0.41421356237309503
10
-49.098555276443044
20
66.749999999999645
10
-47.898555276443048
20
66.749999999999645
42
-0.41421356237309503
10
-47.398555276443048
20
66.249999999999645
10
-47.398555276443055
20
66.149999999999636
42
-0.41421356237309503
0
LWPOLYLINE
5
196
100
AcDbEntity
8
0
100
AcDbPolyline
90
8
70
1
43
0.0
10
-19.279805276443046
20
37.499999999999993
10
-19.279805276443046
20
38.700000000000003
42
-0.4142135623730937
10
-18.779805276443049
20
39.200000000000003
10
-18.679805276443041
20
39.200000000000003
42
-0.41421356237309243
10
-18.179805276443048
20
38.700000000000003
10
-18.179805276443048
20
37.499999999999993
42
-0.41421356237309243
10
-18.679805276443041
20
36.999999999999993
10
-18.779805276443049
20
36.999999999999993
42
-0.4142135623730937
0
LWPOLYLINE
5
197
100
AcDbEntity
8
0
100
AcDbPolyline
90
7
70
1
43
0.0
10
-136.74230527644309
20
65.64999999999965
10
-138.44230527644311
20
65.649999999999679
10
-138.44230527644311
20
66.249999999999659
42
-0.41421356237309503
10
-137.94230527644311
20
66.749999999999659
10
-136.74230527644309
20
66.749999999999659
42
-0.41421356237309503
10
-136.24230527644306
20
66.249999999999659
10
-136.24230527644312
20
66.14999999999965
42
-0.41421356237309503
0
LWPOLYLINE
5
198
100
AcDbEntity
8
0
100
AcDbPolyline
90
8
70
1
43
0.0
10
-233.47355527644311
20
37.500000000000043
10
-233.47355527644308
20
38.700000000000038
42
-0.41421356237309503
10
-232.97355527644305
20
39.200000000000038
10
-232.87355527644308
20
39.200000000000045
42
-0.41421356237309503
10
-232.37355527644308
20
38.700000000000038
10
-232.37355527644308
20
37.500000000000043
42
-0.41421356237309503
10
-232.87355527644308
20
37.000000000000043
10
-232.97355527644305
20
37
42
-0.41421356237309503
0
LWPOLYLINE
5
199
100
AcDbEntity
8
0
100
AcDbPolyline
90
8
70
1
43
0.0
10
-152.63605519602268
20
9.4499999999999531
10
-153.83605519602267
20
9.449999999999946
42
-0.41421356237309437
10
-154.33605519602267
20
9.9499999999999531
10
-154.33605519602267
20
10.049999999999953
42
-0.41421356237309503
10
-153.83605519602267
20
10.549999999999953
10
-152.63605519602265
20
10.54999999999996
42
-0.41421356237309503
10
-152.13605519602265
20
10.049999999999953
10
-152.13605519602268
20
9.9499999999999531
42
-0.41421356237309503
0
LWPOLYLINE
5
200
100
AcDbEntity
8
0
100
AcDbPolyline
90
8
70
1
43
0.0
10
-37.636055196074985
20
9.4499999999999478
10
-38.836055196074987
20
9.4499999999999478
42
-0.41421356237309437
10
-39.33605519607498
20
9.949999999999946
10
-39.336055196074994
20
10.049999999999946
42
-0.41421356237309243
10
-38.836055196074994
20
10.549999999999946
10
-37.636055196074985
20
10.549999999999944
42
-0.41421356237309503
10
-37.136055196074985
20
10.049999999999946
10
-37.136055196074985
20
9.949999999999946
42
-0.41421356237309503
0
LWPOLYLINE
5
201
100
AcDbEntity
8
0
100
AcDbPolyline
90
8
70
1
43
0.0
10
-88.536055196022673
20
9.4499999999999496
10
-150.53605519602266
20
9.449999999999946
42
-0.41421356237309437
10
-151.03605519602266
20
9.9499999999999531
10
-151.03605519602266
20
10.049999999999953
42
-0.41421356237309503
10
-150.53605519602266
20
10.549999999999953
10
-88.536055196022673
20
10.549999999999955
42
-0.41421356237309503
10
-88.036055196022659
20
10.049999999999947
10
-88.036055196022687
20
9.9499999999999478
42
-0.41421356237309503
0
LWPOLYLINE
5
202
100
AcDbEntity
8
0
100
AcDbPolyline
90
8
70
1
43
0.0
10
-193.1423052764431
20
66.749999999999659
10
-140.0423052764431
20
66.749999999999659
42
-0.41421356237309503
10
-139.5423052764431
20
66.249999999999659
10
-139.5423052764431
20
66.14999999999965
42
-0.41421356237309503
10
-140.0423052764431
20
65.64999999999965
10
-193.1423052764431
20
65.649999999999636
42
-0.41421356237309503
10
-193.6423052764431
20
66.14999999999965
10
-193.6423052764431
20
66.249999999999659
42
-0.41421356237309503
0
LWPOLYLINE
5
203
100
AcDbEntity
8
0
100
AcDbPolyline
90
20
70
1
43
0.0
10
-18.179805276443048
20
29.149999999999974
42
0.41421356237309243
10
-17.679805276443044
20
28.649999999999977
10
-16.298555276443039
20
28.649999999999977
42
-0.4142135623730937
10
-15.798555276443043
20
28.149999999999974
10
-15.798555276443045
20
9.9499999999999424
42
-0.41421356237309309
10
-16.298555276443043
20
9.449999999999946
10
-35.536055196074983
20
9.4499999999999478
42
-0.41421356237309437
10
-36.036055196074983
20
9.949999999999946
10
-36.03605519607499
20
10.049999999999946
42
-0.41421356237309243
10
-35.536055196074997
20
10.549999999999946
10
-17.398555276443055
20
10.549999999999947
42
0.41421356237310281
10
-16.898555276443044
20
11.049999999999944
10
-16.898555276443048
20
27.049999999999976
42
0.41421356237309243
10
-17.398555276443044
20
27.549999999999972
10
-18.779805276443049
20
27.549999999999972
42
-0.4142135623730937
10
-19.279805276443046
20
28.049999999999969
10
-19.279805276443046
20
35.399999999999999
42
-0.4142135623730937
10
-18.779805276443049
20
35.899999999999999
10
-18.679805276443041
20
35.899999999999999
42
-0.41421356237309243
10
-18.179805276443048
20
35.399999999999999
0
LWPOLYLINE
5
204
100
AcDbEntity
8
0
100
AcDbPolyline
90
20
70
1
43
0.0
10
-34.398555276443041
20
65.149999999999636
42
0.41421356237310542
10
-34.898555276443034
20
65.649999999999622
10
-45.798555276443039
20
65.649999999999636
42
-0.41421356237310025
10
-46.298555276443039
20
66.149999999999636
10
-46.298555276443039
20
66.249999999999645
42
-0.41421356237309503
10
-45.798555276443047
20
66.749999999999645
10
-33.798555276443039
20
66.749999999999645
42
-0.41421356237309764
10
-33.298555276443039
20
66.249999999999645
10
-33.298555276443047
20
48.700000000000031
42
0.41421356237309764
10
-32.798555276443039
20
48.200000000000038
10
-18.679805276443041
20
48.200000000000031
42
-0.41421356237308982
10
-18.179805276443048
20
47.700000000000031
10
-18.179805276443048
20
40.799999999999997
42
-0.41421356237309243
10
-18.679805276443041
20
40.299999999999997
10
-18.779805276443049
20
40.299999999999997
42
-0.4142135623730937
10
-19.279805276443046
20
40.79999999999999
10
-19.279805276443046
20
46.600000000000023
42
0.41421356237309503
10
-19.779805276443046
20
47.100000000000016
10
-33.898555276443041
20
47.100000000000023
42
-0.41421356237309243
10
-34.398555276443034
20
47.600000000000023
0
LWPOLYLINE
5
205
100
AcDbEntity
8
0
100
AcDbPolyline
90
8
70
1
43
0.0
10
-245.44855527644313
20
87.462499999999963
10
-245.44855527644313
20
74.46249999999992
42
-0.41421356237320428
10
-245.9485552764431
20
73.96249999999992
10
-258.94855527644313
20
73.962499999999892
42
-0.41421356237310025
10
-259.44855527644313
20
74.462499999999977
10
-259.44855527644313
20
87.462499999999963
42
-0.41421356237313667
10
-258.94855527644313
20
87.962499999999977
10
-245.94855527644313
20
87.962499999999991
42
-0.4142135623730846
0
ENDSEC
0
SECTION
2
OBJECTS
0
DICTIONARY
5
C
100
AcDbDictionary
3
ACAD_GROUP
350
D
3
ACAD_MLINESTYLE
350
17
0
DICTIONARY
5
D
100
AcDbDictionary
0
DICTIONARY
5
1A
330
C
100
AcDbDictionary
0
DICTIONARY
5
17
100
AcDbDictionary
0
ENDSEC
0
EOF
